<svg xmlns="http://www.w3.org/2000/svg" viewBox="0 0 120 120" width="120" height="120">
  <defs>
    <linearGradient id="bg" x1="0" y1="0" x2="1" y2="1">
      <stop offset="0" stop-color="#FFB638"/>
      <stop offset="1" stop-color="#FF7E33"/>
    </linearGradient>
  </defs>
  <rect width="120" height="120" rx="27" fill="url(#bg)"/>
  <g transform="translate(60 60) scale(0.66) translate(-60 -60)" fill="#ffffff">
    <path d="M60,12 C63.5,19 63.5,29 60,36 C56.5,29 56.5,19 60,12 Z" transform="rotate(0 60 60)"/>
    <path d="M60,12 C63.5,19 63.5,29 60,36 C56.5,29 56.5,19 60,12 Z" transform="rotate(45 60 60)"/>
    <path d="M60,12 C63.5,19 63.5,29 60,36 C56.5,29 56.5,19 60,12 Z" transform="rotate(90 60 60)"/>
    <path d="M60,12 C63.5,19 63.5,29 60,36 C56.5,29 56.5,19 60,12 Z" transform="rotate(135 60 60)"/>
    <path d="M60,12 C63.5,19 63.5,29 60,36 C56.5,29 56.5,19 60,12 Z" transform="rotate(180 60 60)"/>
    <path d="M60,12 C63.5,19 63.5,29 60,36 C56.5,29 56.5,19 60,12 Z" transform="rotate(225 60 60)"/>
    <path d="M60,12 C63.5,19 63.5,29 60,36 C56.5,29 56.5,19 60,12 Z" transform="rotate(270 60 60)"/>
    <path d="M60,12 C63.5,19 63.5,29 60,36 C56.5,29 56.5,19 60,12 Z" transform="rotate(315 60 60)"/>
    <circle cx="60" cy="60" r="22"/>
  </g>
</svg>
